/* XPM */
static char *result[] = {
/* columns rows colors chars-per-pixel */
"50 100 20 1 ",
"  c black",
". c #00117A",
"X c #0D2FF9",
"o c #0086FF",
"O c #9BADB7",
"+ c #9BADB8",
"@ c #9CAEB8",
"# c #9CAEB9",
"$ c #9EB0BD",
"% c #9FB0BD",
"& c #A4B5C5",
"* c #A5B6C6",
"= c #ADBDD2",
"- c #B6C6DF",
"; c #BFCFEB",
": c #C5D5F3",
"> c #C8D8F8",
", c #CADAFB",
"< c #CBDBFC",
"1 c white",
/* pixels */
"11111111111111111111111111111111111111111111111111",
"1<<<<<<<<<<<<<<<<<<<<<<<<<<<<<<<<<<<<<<<<<<<<<<<<<",
"1<<<<<<<<<<<<<<<<<<<<<<<<<<<<<<<<<<<<<<<<<<<<<<<<<",
"1<<<<<<<<<<<<<<<<<<<<<<<<<<<<<<<<<<<<<<<<<<<<<<<<<",
"1<<<<<<<<<<<<<<<<<<<<<<<<<<<<<<<<<<<<<<<<<<<<<<<<<",
"1<<<<<<<<<<<<<<<<<<<<<<<<<<<<<<<<<<<<<<<<<<<<<<<<<",
"1<<<<<<<<<<<<<<<<<<<<<<<<<<<<<<<<<<<<<<<<<<<<<<<<<",
"1<<<<<<<<<<<<<<<<<<<<<<<<<<<<<<<<<<<<<<<<<<<<<<<<<",
"1<<<<<<<<<<<<<<<<<<<<<<<<<<<<<<<<<<<<<<<<<<<<<<<<<",
"1<<<<<<<<<<<<<<<<<<<<<<<<<<<<<<<<<<<<<<<<<<<<<<<<<",
"1<<<<<<<<<<<<<<<<<<<<<<<<<<<<<<<<<<<<<<<<<<<<<<<<<",
"1<<<<<<<<<<<<<<<<<<<<<<<<<<<<<<<<<<<<<<<<<<<<<<<<<",
"1<<<<<<<<<<<<<<<<<<<<<<<<<<<<<<<<<<<<<<<<<<<<<<<<<",
"1<<<<<<<<<<<<<<<<<<<<<<<<<<<<<<<<<<<<<<<<<<<<<<<<<",
"1<<<<<<<<<<<<<<<<<<<<<<<<<<<<<<<<<<<<<<<<<<<<<<<<<",
"1<<<<<<<<<<<<<<<<<<<<<<<<<<<<<<<<<<<<<<<<<<<<<<<<<",
"1<<<<<<<<<<<<<<<<<<<<<<<<<<<<<<<<<<<<<<<<<<<<<<<<<",
"1<<<<<<<<<<<<<<<<<<<<<<<<<<<<<<<<<<<<<<<<<<<<<<<<<",
"1<<<<<<<<<<<<<<<<<<<<<<<<<<<<<<<<<<<<<<<<<<<<<<<<<",
"1<<<<<<<<<<<<<<<<<<<<<<<<<<<<<<<<<<<<<<<<<<<<<<<<<",
"1<<<<<<<<<<<<<<<<<<<<<<<<<<<<<<<<<<<<<<<<<<<<<<<<<",
"1<<<<<<<<<<<<<<<<<<<<<<<<<<<<<<<<<<<<<<<<<<<<<<<<<",
"1<<<<<<<<<<<<<<<<<<<<<<<<<<<<<<<<<<<<<<<<<<<<<<<<<",
"1<<<<<<<<<<<<<<<<<<<<<<<<<<<<<<<<<<<<<<<<<<<<<<<<<",
"1<<<<<<<<<<<<<<<<<<<<<<<<<<<<<<<<<<<<<<<<<<<<<<<<<",
"1<<<<<<<<<<<<<<<<<<<<<<<<<<<<<<<<<<<<<<<<<<<<<<<<<",
"1<<<<<<<<<<<<<<<<<<<<<<<<<<<<<<<<<<<<<<<<<<<<<<<<<",
"1<<<<<<<<<<<<<<<<<<<<<<<<<<<<<<<<<<<<<<<<<<<<<<<<<",
"1<<<<<<<<<<<<<<<<<<<<<<<<<<<<<<<<<<<<<<<<<<<<<<<<<",
"1<<<<<<<<<<<<<<<<<<<<<<<<<<<<<<<<<<<<<<<<<<<<<<<<<",
"1<<<<<<<<<<<<<<<<<<<<<<<<<<<<<<<<<<<<<<<<<<<<<<<<<",
"1<<<<<<<<<<<<<<<<<<<<<<<<<<<<<<<<<<<<<<<<<<<<<<<<<",
"1,,,,,,,,,,,,,,,,,,,,,,,,,,,,,,,,,,,,,,,,,,,,,,,,,",
"1,,,,,,,,,,,,,,,,,,,,,,,,,,,,,,,,,,,,,,,,,,,,,,,,,",
"1>>>>>>>>>>>>>>>>>>>>>>>>>>>>>>>>>>>>>>>>>>>>>>>>>",
"1:::::::::::::::::::::::::::::::::::::::::::::::::",
"1;;;;;;;;;;;;;;;;;;;;;;;;;;;;;;;;;;;;;;;;;;;;;;;;;",
"1-------------------------------------------------",
"1=================================================",
"1&&***********************************************",
"1$$%%%%%%%%%%%%%%%%%%%%%%%%%%%%%%%%%%%%%%%%%%%%%%%",
"1++@@@@@@@@@######################################",
"1OOOOOOOOOOOOOOOOOOOOOOOOOOOOOOOOOOOOOOOOOOOOOOOOO",
"1OOOOOOOOOOOOOOOOOOOOOOOOOOOOOOOOOOOOOOOOOOOOOOOOO",
"1OOOOOOOOOOOOOOOOOOOOOOOOOOOOOOOOOOOOOOOOOOOOOOOOO",
"1OOOOOOOOOOOOOOOOOOOOOOOOOOOOOOOOOOOOOOOOOOOOOOOOO",
"1OOOOOOOOOOOOOOOOOOOOOOOOOOOOOOOOOOOOOOOOOOOOOOOOO",
"1OOOOOOOOOOOOOOOOOOOOOOOOOOOOOOOOOOOOOOOOOOOOOOOOO",
"1OOOOOOOOOOOOOOOOOOOOOOOOOOOOOOOOOOOOOOOOOOOOOOOOO",
"1OOOOOOOOOOOOOOOOOOOOOOOOOOOOOOOOOOOOOOOOOOOOOOOOO",
"11111111111111111111111111111111111111111111111111",
"1<<<<<<<<<<<<<<<<<<<<<<<<<<<<<<<<<<<<<<<<<<<<<<<<<",
"1<<<<<<<<<<<<<<<<<<<<<<<<<<<<<<<<<<<<<<<<<<<<<<<<<",
"1<<<<<<<<<<<<<<<<<<<<       <<<<<<<<<<<<<<<<<<<<<<",
"1<<<<<<<<<<<<<<<<<<  XXXXXXX  <<<<<<<<<<<<<<<<<<<<",
"1<<<<<<<<<<<<<<<<  XXXooooXXXX  <<<<<<<<<<<<<<<<<<",
"1<<<<<<<<<<<<<<< XXXXo1111oXXXXX <<<<<<<<<<<<<<<<<",
"1<<<<<<<<<<<<<< XXXXXoo111ooXXXXX <<<<<<<<<<<<<<<<",
"1<<<<<<<<<<<<< XXXXXXXoooooXXXXXXX <<<<<<<<<<<<<<<",
"1<<<<<<<<<<<<< XXXXXXXXXooXXXXXXXX <<<<<<<<<<<<<<<",
"1<<<<<<<<<<<< XXXXXXXXXXXXXXXXXXXXX <<<<<<<<<<<<<<",
"1<<<<<<<<<<< XXXXXXXXXXXXXXXXXXXXXXX <<<<<<<<<<<<<",
"1<<<<<<<<<<< XXXXXXXXXXXXXXXXXXXXXXX <<<<<<<<<<<<<",
"1<<<<<<<<<< XXXXXXXXXXXXXXXXXXXXXXXXX <<<<<<<<<<<<",
"1<<<<<<<<<< XXXXXXXXXXXXXXXXXXXXXXXXX <<<<<<<<<<<<",
"1<<<<<<<<<< XXXXXXXXXXXXXXXXXXXXXXXXX <<<<<<<<<<<<",
"1<<<<<<<<<< XXXXXXXXXXXXXXXXXXXXXXXXX <<<<<<<<<<<<",
"1<<<<<<<<< XXXXXXXXXXXXXXXXXXXXXXXXXXX <<<<<<<<<<<",
"1<<<<<<<<< XXXXXXXXXXXXXXXXXXXXXXXXXXX <<<<<<<<<<<",
"1<<<<<<<<< XXXXXXXXXXXXXXXXXXXXXXXXXXX <<<<<<<<<<<",
"1<<<<<<<<< XXXXXXXXXXXXXXXXXXXXXXXXXXX <<<<<<<<<<<",
"1<<<<<<<<< XXXXXXXXXXXXXXXXXXXXXXXXXXX <<<<<<<<<<<",
"1<<<<<<<<< XXXXXXXXXXXXXXXXXXXXXXXXXXX <<<<<<<<<<<",
"1<<<<<<<<< XXXXXXXXXXXXXXXXXXXXXXXXXXX <<<<<<<<<<<",
"1<<<<<<<<< .XXXXXXXXXXXXXXXXXXXXXXXXXX <<<<<<<<<<<",
"1<<<<<<<<< .XXXXXXXXXXXXXXXXXXXXXXXXX. <<<<<<<<<<<",
"1<<<<<<<<<< .XXXXXXXXXXXXXXXXXXXXXXX. <<<<<<<<<<<<",
"1<<<<<<<<<< .XXXXXXXXXXXXXXXXXXXXXX.X <<<<<<<<<<<<",
"1<<<<<<<<<< ..XXXXXXXXXXXXXXXXXXXX.X. <<<<<<<<<<<<",
"1<<<<<<<<<< ..XXXXXXXXXXXXXXXXXXX.X.. <<<<<<<<<<<<",
"1<<<<<<<<<<< ..XXXXXXXXXXXXXXXXX.X.. <<<<<<<<<<<<<",
"1<<<<<<<<<<< ...XXXXXXXXXXXXXXX.X... <<<<<<<<<<<<<",
"1,,,,,,,,,,,, ...XX.XXXXXXXXX..X... ,,,,,,,,,,,,,,",
"1,,,,,,,,,,,,, ...XXX.XXXXX..XX... ,,,,,,,,,,,,,,,",
"1>>>>>>>>>>>>> .....XX.....XX..... >>>>>>>>>>>>>>>",
"1:::::::::::::: ......XXXXX...... ::::::::::::::::",
"1;;;;;;;;;;;;;;; ............... ;;;;;;;;;;;;;;;;;",
"1----------------  ...........  ------------------",
"1==================  .......  ====================",
"1&&******************       **********************",
"1$$%%%%%%%%%%%%%%%%%%%%%%%%%%%%%%%%%%%%%%%%%%%%%%%",
"1++@@@@@@@@@######################################",
"1OOOOOOOOOOOOOOOOOOOOOOOOOOOOOOOOOOOOOOOOOOOOOOOOO",
"1OOOOOOOOOOOOOOOOOOOOOOOOOOOOOOOOOOOOOOOOOOOOOOOOO",
"1OOOOOOOOO                             OOOOOOOOOOO",
"1OOOOOOO                                 OOOOOOOOO",
"1OOOOOOOOO                             OOOOOOOOOOO",
"1OOOOOOOOOOOOOOOOOOOOOOOOOOOOOOOOOOOOOOOOOOOOOOOOO",
"1OOOOOOOOOOOOOOOOOOOOOOOOOOOOOOOOOOOOOOOOOOOOOOOOO",
"1OOOOOOOOOOOOOOOOOOOOOOOOOOOOOOOOOOOOOOOOOOOOOOOOO"
};
