/* XPM */
static char *result[] = {
/* columns rows colors chars-per-pixel */
"50 100 20 1 ",
"  c black",
". c #00117A",
"X c #0D2FF9",
"o c #0086FF",
"O c #9BADB7",
"+ c #9BADB8",
"@ c #9CAEB8",
"# c #9CAEB9",
"$ c #9EB0BD",
"% c #9FB0BD",
"& c #A4B5C5",
"* c #A5B6C6",
"= c #ADBDD2",
"- c #B6C6DF",
"; c #BFCFEB",
": c #C5D5F3",
"> c #C8D8F8",
", c #CADAFB",
"< c #CBDBFC",
"1 c white",
/* pixels */
"11111111111111111111111111111111111111111111111111",
"1<<<<<<<<<<<<<<<<<<<<<<<<<<<<<<<<<<<<<<<<<<<<<<<<<",
"1<<<<<<<<<<<<<<<<<<<<<<<<<<<<<<<<<<<<<<<<<<<<<<<<<",
"1<<<<<<<<<<<<<<<<<<<<<<<<<<<<<<<<<<<<<<<<<<<<<<<<<",
"1<<<<<<<<<<<<<<<<<<<<<<<<<<<<<<<<<<<<<<<<<<<<<<<<<",
"1<<<<<<<<<<<<<<<<<<<<<<<<<<<<<<<<<<<<<<<<<<<<<<<<<",
"1<<<<<<<<<<<<<<<<<<<<<<<<<<<<<<<<<<<<<<<<<<<<<<<<<",
"1<<<<<<<<<<<<<<<<<<<<<<<<<<<<<<<<<<<<<<<<<<<<<<<<<",
"1<<<<<<<<<<<<<<<<<<<<<<<<<<<<<<<<<<<<<<<<<<<<<<<<<",
"1<<<<<<<<<<<<<<<<<<<<<<<<<<<<<<<<<<<<<<<<<<<<<<<<<",
"1<<<<<<<<<<<<<<<<<<<<<<<<<<<<<<<<<<<<<<<<<<<<<<<<<",
"1<<<<<<<<<<<<<<<<<<<<<<<<<<<<<<<<<<<<<<<<<<<<<<<<<",
"1<<<<<<<<<<<<<<<<<<<<<<<<<<<<<<<<<<<<<<<<<<<<<<<<<",
"1<<<<<<<<<<<<<<<<<<<<<<<<<<<<<<<<<<<<<<<<<<<<<<<<<",
"1<<<<<<<<<<<<<<<<<<<<<<<<<<<<<<<<<<<<<<<<<<<<<<<<<",
"1<<<<<<<<<<<<<<<<<<<<<<<<<<<<<<<<<<<<<<<<<<<<<<<<<",
"1<<<<<<<<<<<<<<<<<<<<<<<<<<<<<<<<<<<<<<<<<<<<<<<<<",
"1<<<<<<<<<<<<<<<<<<<<<<<<<<<<<<<<<<<<<<<<<<<<<<<<<",
"1<<<<<<<<<<<<<<<<<<<<<<<<<<<<<<<<<<<<<<<<<<<<<<<<<",
"1<<<<<<<<<<<<<<<<<<<<<<<<<<<<<<<<<<<<<<<<<<<<<<<<<",
"1<<<<<<<<<<<<<<<<<<<<<<<<<<<<<<<<<<<<<<<<<<<<<<<<<",
"1<<<<<<<<<<<<<<<<<<<<<<<<<<<<<<<<<<<<<<<<<<<<<<<<<",
"1<<<<<<<<<<<<<<<<<<<<<<<<<<<<<<<<<<<<<<<<<<<<<<<<<",
"1<<<<<<<<<<<<<<<<<<<<<<<<<<<<<<<<<<<<<<<<<<<<<<<<<",
"1<<<<<<<<<<<<<<<<<<<<<<<<<<<<<<<<<<<<<<<<<<<<<<<<<",
"1<<<<<<<<<<<<<<<<<<<<<<<<<<<<<<<<<<<<<<<<<<<<<<<<<",
"1<<<<<<<<<<<<<<<<<<<<<<<<<<<<<<<<<<<<<<<<<<<<<<<<<",
"1<<<<<<<<<<<<<<<<<<<<<<<<<<<<<<<<<<<<<<<<<<<<<<<<<",
"1<<<<<<<<<<<<<<<<<<<<<<<<<<<<<<<<<<<<<<<<<<<<<<<<<",
"1<<<<<<<<<<<<<<<<<<<<<<<<<<<<<<<<<<<<<<<<<<<<<<<<<",
"1<<<<<<<<<<<<<<<<<<<<<<<<<<<<<<<<<<<<<<<<<<<<<<<<<",
"1<<<<<<<<<<<<<<<<<<<<<<<<<<<<<<<<<<<<<<<<<<<<<<<<<",
"1,,,,,,,,,,,,,,,,,,,,,,,,,,,,,,,,,,,,,,,,,,,,,,,,,",
"1,,,,,,,,,,,,,,,,,,,,,,,,,,,,,,,,,,,,,,,,,,,,,,,,,",
"1>>>>>>>>>>>>>>>>>>>>>>>>>>>>>>>>>>>>>>>>>>>>>>>>>",
"1:::::::::::::::::::::::::::::::::::::::::::::::::",
"1;;;;;;;;;;;;;;;;;;;;;;;;;;;;;;;;;;;;;;;;;;;;;;;;;",
"1-------------------------------------------------",
"1=================================================",
"1&&***********************************************",
"1$$%%%%%%%%%%%%%%%%%%%%%%%%%%%%%%%%%%%%%%%%%%%%%%%",
"1++@@@@@@@@@######################################",
"1OOOOOOOOOOOOOOOOOOOOOOOOOOOOOOOOOOOOOOOOOOOOOOOOO",
"1OOOOOOOOOOOOOOOOOOOOOOOOOOOOOOOOOOOOOOOOOOOOOOOOO",
"1OOOOOOOOOOOOOOOOOOOOOOOOOOOOOOOOOOOOOOOOOOOOOOOOO",
"1OOOOOOOOOOOOOOOOOOOOOOOOOOOOOOOOOOOOOOOOOOOOOOOOO",
"1OOOOOOOOOOOOOOOOOOOOOOOOOOOOOOOOOOOOOOOOOOOOOOOOO",
"1OOOOOOOOOOOOOOOOOOOOOOOOOOOOOOOOOOOOOOOOOOOOOOOOO",
"1OOOOOOOOOOOOOOOOOOOOOOOOOOOOOOOOOOOOOOOOOOOOOOOOO",
"1OOOOOOOOOOOOOOOOOOOOOOOOOOOOOOOOOOOOOOOOOOOOOOOOO",
"11111111111111111111111111111111111111111111111111",
"1<<<<<<<<<<<<<<<<<<<<<<<<<<<<<<<<<<<<<<<<<<<<<<<<<",
"1<<<<<<<<<<<<<<<<<<<<<<<<<<<<<<<<<<<<<<<<<<<<<<<<<",
"1<<<<<<<<<<<<<<<<<<<<<<<<<<<<<<<<<<<<<<<<<<<<<<<<<",
"1<<<<<<<<<<<<<<<<<<<<<<<<<<<<<<<<<<<<<<<<<<<<<<<<<",
"1<<<<<<<<<<<<<<<<<<<<<<<<<<<<<<<<<<<<<<<<<<<<<<<<<",
"1<<<<<<<<<<<<<<<<<<<<<<<<<<<<<<<<<<<<<<<<<<<<<<<<<",
"1<<<<<<<<<<<<<<<<<<<<<<<<<<<<<<<<<<<<<<<<<<<<<<<<<",
"1<<<<<<<<<<<<<<<<<<<<<<<<<<<<<<<<<<<<<<<<<<<<<<<<<",
"1<<<<<<<<<<<<<<<<<<<<<<<<<<<<<<<<<<<<<<<<<<<<<<<<<",
"1<<<<<<<<<<<<<<<<<<<<<<<<<<<<<<<<<<<<<<<<<<<<<<<<<",
"1<<<<<<<<<<<<<<<<<<<<<<<<<<<<<<<<<<<<<<<<<<<<<<<<<",
"1<<<<<<<<<<<<<<<<<<<<<<<<<<<<<<<<<<<<<<<<<<<<<<<<<",
"1<<<<<<<<<<<<<<<<<<<<<<<<<<<<<<<<<<<<<<<<<<<<<<<<<",
"1<<<<<<<<<<<<<<<<<<<<<<<<<<<<<<<<<<<<<<<<<<<<<<<<<",
"1<<<<<<<<<<<<<<<<<          <<<<<<<<<<<<<<<<<<<<<<",
"1<<<<<<<<<<<<<<<<  XXXXXXXX      <<<<<<<<<<<<<<<<<",
"1<<<<<<<<<<<<    XXXoooooXXXXXXX   <<<<<<<<<<<<<<<",
"1<<<<<<<<<<< XXXXXoo1111oooXXXXXXXX <<<<<<<<<<<<<<",
"1<<<<<<<<<  XXXXXo1111111ooXXXXXXXXX   <<<<<<<<<<<",
"1<<<<<<<< XXXXXXXoo11111ooXXXXXXXXXXXXX <<<<<<<<<<",
"1<<<<<<< XXXXXXXXXooooooXXXXXXXXXXXXXXXX <<<<<<<<<",
"1<<<<<< XXXXXXXXXXXXXXXXXXXXXXXXXXXXXXXXX <<<<<<<<",
"1<<<<< XXXXXXXXXXXXXXXXXXXXXXXXXXXXXXXXXXX <<<<<<<",
"1<<<< XXXXXXXXXXXXXXXXXXXXXXXXXXXXXXXXXXXXX <<<<<<",
"1<<<< XXXXXXXXXXXXXXXXXXXXXXXXXXXXXXXXXXXXX <<<<<<",
"1<<<< XXXXXXXXXXXXXXXXXXXXXXXXXXXXXXXXXXXXX <<<<<<",
"1<<<< XXXXXXXXXXXXXXXXXXXXXXXXXXXXXXXXXXXXX <<<<<<",
"1<<<< XXXXXXXXXXXXXXXXXXXXXXXXXXXXXXXXXXXXXX <<<<<",
"1<<<< XXXXXXXXXXXXXXXXXXXXXXXXXXXXXXXXXXXXXX <<<<<",
"1<<<  XXXXXXXXXXXXXXXXXXXXXXXXXXXXXXXXXXXXX. <<<<<",
"1<<< XXXXXXXXXXXXXXXXXXXXXXXXXXXXXXXXXXXXX.X <<<<<",
"1,,, XXXXXXXXXXXXXXXXXXXXXXXXXXXXXXXXXXXX.X. ,,,,,",
"1,,, XXXXXXXXXXXXXXXXXXXXXXXXXXXXXXXXXXX.X.. ,,,,,",
"1>>>> XXXXXXXXXXXXXXXXXXXXXXXXXXXXXXXXX.X... >>>>>",
"1:::: XXXXXXXXXXXXXXXXXXXXXXXXXXXXXXX..X... ::::::",
"1;;;;; .XXXXXXXXXXXXXXXXXXXXXXXXXXX..XX.... ;;;;;;",
"1----- ....XXXXXXX.X.XXXXXXXXXX....XX..... -------",
"1====== .........XXXX..........XXXX....... =======",
"1&&*****  ...........XXXXXXXXXX.......... ********",
"1$$%%%%%%% ............................. %%%%%%%%%",
"1++@@@@@@@@  ........................  ###########",
"1OOOOOOOOOOOO  ....................  OOOOOOOOOOOOO",
"1OOOOOOOOOOOOOO  ................  OOOOOOOOOOOOOOO",
"1OOOOO             ............           OOOOOOOO",
"1OOOO                                      OOOOOOO",
"1OOOOOO                                   OOOOOOOO",
"1OOOOOOOOOOOOOOOOOOOOOOOOOOOOOOOOOOOOOOOOOOOOOOOOO",
"1OOOOOOOOOOOOOOOOOOOOOOOOOOOOOOOOOOOOOOOOOOOOOOOOO",
"1OOOOOOOOOOOOOOOOOOOOOOOOOOOOOOOOOOOOOOOOOOOOOOOOO"
};
