/* XPM */
static char *result[] = {
/* columns rows colors chars-per-pixel */
"50 100 20 1 ",
"  c black",
". c #00117A",
"X c #0D2FF9",
"o c #0086FF",
"O c #9BADB7",
"+ c #9BADB8",
"@ c #9CAEB8",
"# c #9CAEB9",
"$ c #9EB0BD",
"% c #9FB0BD",
"& c #A4B5C5",
"* c #A5B6C6",
"= c #ADBDD2",
"- c #B6C6DF",
"; c #BFCFEB",
": c #C5D5F3",
"> c #C8D8F8",
", c #CADAFB",
"< c #CBDBFC",
"1 c white",
/* pixels */
"11111111111111111111111111111111111111111111111111",
"1<<<<<<<<<<<<<<<<<<<<<<<<<<<<<<<<<<<<<<<<<<<<<<<<<",
"1<<<<<<<<<<<<<<<<<<<<<<<<<<<<<<<<<<<<<<<<<<<<<<<<<",
"1<<<<<<<<<<<<<<<<<<<<<<<<<<<<<<<<<<<<<<<<<<<<<<<<<",
"1<<<<<<<<<<<<<<<<<<<          <<<<<<<<<<<<<<<<<<<<",
"1<<<<<<<<<<<<<<<<   XXXXXXXXXX   <<<<<<<<<<<<<<<<<",
"1<<<<<<<<<<<<<<  XXXXXoooooXXXXXX  <<<<<<<<<<<<<<<",
"1<<<<<<<<<<<<< XXXXoooo111oooXXXXXX <<<<<<<<<<<<<<",
"1<<<<<<<<<<<< XXXXooo1111111ooXXXXXX <<<<<<<<<<<<<",
"1<<<<<<<<<<< XXXXXoooo11111ooXXXXXXXX <<<<<<<<<<<<",
"1<<<<<<<<<< XXXXXXXoooo11oooXXXXXXXXXX <<<<<<<<<<<",
"1<<<<<<<<< XXXXXXXXXoooooooXXXXXXXXXXXX <<<<<<<<<<",
"1<<<<<<<< XXXXXXXXXXXXoooXXXXXXXXXXXXXXX <<<<<<<<<",
"1<<<<<<< XXXXXXXXXXXXXXXXXXXXXXXXXXXXXXXX <<<<<<<<",
"1<<<<<<< XXXXXXXXXXXXXXXXXXXXXXXXXXXXXXXX <<<<<<<<",
"1<<<<<< XXXXXXXXXXXXXXXXXXXXXXXXXXXXXXXXXX <<<<<<<",
"1<<<<<< XXXXXXXXXXXXXXXXXXXXXXXXXXXXXXXXXX <<<<<<<",
"1<<<<<< XXXXXXXXXXXXXXXXXXXXXXXXXXXXXXXXXX <<<<<<<",
"1<<<<< XXXXXXXXXXXXXXXXXXXXXXXXXXXXXXXXXXXX <<<<<<",
"1<<<<< XXXXXXXXXXXXXXXXXXXXXXXXXXXXXXXXXXXX <<<<<<",
"1<<<<< XXXXXXXXXXXXXXXXXXXXXXXXXXXXXXXXXXXX <<<<<<",
"1<<<<< XXXXXXXXXXXXXXXXXXXXXXXXXXXXXXXXXXXX <<<<<<",
"1<<<<< XXXXXXXXXXXXXXXXXXXXXXXXXXXXXXXXXXXX <<<<<<",
"1<<<<< XXXXXXXXXXXXXXXXXXXXXXXXXXXXXXXXXXXX <<<<<<",
"1<<<<< XXXXXXXXXXXXXXXXXXXXXXXXXXXXXXXXXXXX <<<<<<",
"1<<<<< XXXXXXXXXXXXXXXXXXXXXXXXXXXXXXXXXXXX <<<<<<",
"1<<<<< XXXXXXXXXXXXXXXXXXXXXXXXXXXXXXXXXXX. <<<<<<",
"1<<<<< .XXXXXXXXXXXXXXXXXXXXXXXXXXXXXXXXX.X <<<<<<",
"1<<<<<< XXXXXXXXXXXXXXXXXXXXXXXXXXXXXXXX.X <<<<<<<",
"1<<<<<< .XXXXXXXXXXXXXXXXXXXXXXXXXXXXXX.X. <<<<<<<",
"1<<<<<< ..XXXXXXXXXXXXXXXXXXXXXXXXXXXX.X.. <<<<<<<",
"1<<<<<<< ..XXXXXXXXXXXXXXXXXXXXXXXXX..X.. <<<<<<<<",
"1,,,,,,, ...XXXXXXXXXXXXXXXXXXXXXX..XX... ,,,,,,,,",
"1,,,,,,,, ...XXXXXXXXXXXXXXXXXX...XX.... ,,,,,,,,,",
"1>>>>>>>>> ....XXXXX.XXXXXXXX..XXX..... >>>>>>>>>>",
"1:::::::::: ......XXXX.......XX....... :::::::::::",
"1;;;;;;;;;;; ........XXXXXXXX........ ;;;;;;;;;;;;",
"1------------ ...................... -------------",
"1============= .................... ==============",
"1&&************  ................  ***************",
"1$$%%%%%%%%%%%%%%   ..........   %%%%%%%%%%%%%%%%%",
"1++@@@@@@@@@########          ####################",
"1OOOOOOOOOOOOOOOOOOOOOOOOOOOOOOOOOOOOOOOOOOOOOOOOO",
"1OOOOOOOOOOOOOOOOOOOOOOOOOOOOOOOOOOOOOOOOOOOOOOOOO",
"1OOOOOOOO                                OOOOOOOOO",
"1OOOOOOO                                  OOOOOOOO",
"1OOOOOOOO                                OOOOOOOOO",
"1OOOOOOOOOOOOOOOOOOOOOOOOOOOOOOOOOOOOOOOOOOOOOOOOO",
"1OOOOOOOOOOOOOOOOOOOOOOOOOOOOOOOOOOOOOOOOOOOOOOOOO",
"1OOOOOOOOOOOOOOOOOOOOOOOOOOOOOOOOOOOOOOOOOOOOOOOOO",
"11111111111111111111111111111111111111111111111111",
"1<<<<<<<<<<<<<<<<<<<<<<<<<<<<<<<<<<<<<<<<<<<<<<<<<",
"1<<<<<<<<<<<<<<<<<<<<<<<<<<<<<<<<<<<<<<<<<<<<<<<<<",
"1<<<<<<<<<<<<<<<<<<<<<<<<<<<<<<<<<<<<<<<<<<<<<<<<<",
"1<<<<<<<<<<<<<<<<<<<<<<<<<<<<<<<<<<<<<<<<<<<<<<<<<",
"1<<<<<<<<<<<<<<<<<<<<<<<<<<<<<<<<<<<<<<<<<<<<<<<<<",
"1<<<<<<<<<<<<<<<<<<<<<<<<<<<<<<<<<<<<<<<<<<<<<<<<<",
"1<<<<<<<<<<<<<<<<<<<<<<<<<<<<<<<<<<<<<<<<<<<<<<<<<",
"1<<<<<<<<<<<<<<<<<<<<<<<<<<<<<<<<<<<<<<<<<<<<<<<<<",
"1<<<<<<<<<<<<<<<<<<<<<<<<<<<<<<<<<<<<<<<<<<<<<<<<<",
"1<<<<<<<<<<<<<<<<<<<<<<<<<<<<<<<<<<<<<<<<<<<<<<<<<",
"1<<<<<<<<<<<<<<<<<<<<<<<<<<<<<<<<<<<<<<<<<<<<<<<<<",
"1<<<<<<<<<<<<<<<<<<<<<<<<<<<<<<<<<<<<<<<<<<<<<<<<<",
"1<<<<<<<<<<<<<<<<<<<<<<<<<<<<<<<<<<<<<<<<<<<<<<<<<",
"1<<<<<<<<<<<<<<<<<<<<<<<<<<<<<<<<<<<<<<<<<<<<<<<<<",
"1<<<<<<<<<<<<<<<<<<<<<<<<<<<<<<<<<<<<<<<<<<<<<<<<<",
"1<<<<<<<<<<<<<<<<<<<<<<<<<<<<<<<<<<<<<<<<<<<<<<<<<",
"1<<<<<<<<<<<<<<<<<<<<<<<<<<<<<<<<<<<<<<<<<<<<<<<<<",
"1<<<<<<<<<<<<<<<<<<<<<<<<<<<<<<<<<<<<<<<<<<<<<<<<<",
"1<<<<<<<<<<<<<<<<<<<<<<<<<<<<<<<<<<<<<<<<<<<<<<<<<",
"1<<<<<<<<<<<<<<<<<<<<<<<<<<<<<<<<<<<<<<<<<<<<<<<<<",
"1<<<<<<<<<<<<<<<<<<<<<<<<<<<<<<<<<<<<<<<<<<<<<<<<<",
"1<<<<<<<<<<<<<<<<<<<<<<<<<<<<<<<<<<<<<<<<<<<<<<<<<",
"1<<<<<<<<<<<<<<<<<<<<<<<<<<<<<<<<<<<<<<<<<<<<<<<<<",
"1<<<<<<<<<<<<<<<<<<<<<<<<<<<<<<<<<<<<<<<<<<<<<<<<<",
"1<<<<<<<<<<<<<<<<<<<<<<<<<<<<<<<<<<<<<<<<<<<<<<<<<",
"1<<<<<<<<<<<<<<<<<<<<<<<<<<<<<<<<<<<<<<<<<<<<<<<<<",
"1<<<<<<<<<<<<<<<<<<<<<<<<<<<<<<<<<<<<<<<<<<<<<<<<<",
"1<<<<<<<<<<<<<<<<<<<<<<<<<<<<<<<<<<<<<<<<<<<<<<<<<",
"1<<<<<<<<<<<<<<<<<<<<<<<<<<<<<<<<<<<<<<<<<<<<<<<<<",
"1<<<<<<<<<<<<<<<<<<<<<<<<<<<<<<<<<<<<<<<<<<<<<<<<<",
"1<<<<<<<<<<<<<<<<<<<<<<<<<<<<<<<<<<<<<<<<<<<<<<<<<",
"1,,,,,,,,,,,,,,,,,,,,,,,,,,,,,,,,,,,,,,,,,,,,,,,,,",
"1,,,,,,,,,,,,,,,,,,,,,,,,,,,,,,,,,,,,,,,,,,,,,,,,,",
"1>>>>>>>>>>>>>>>>>>>>>>>>>>>>>>>>>>>>>>>>>>>>>>>>>",
"1:::::::::::::::::::::::::::::::::::::::::::::::::",
"1;;;;;;;;;;;;;;;;;;;;;;;;;;;;;;;;;;;;;;;;;;;;;;;;;",
"1-------------------------------------------------",
"1=================================================",
"1&&***********************************************",
"1$$%%%%%%%%%%%%%%%%%%%%%%%%%%%%%%%%%%%%%%%%%%%%%%%",
"1++@@@@@@@@@######################################",
"1OOOOOOOOOOOOOOOOOOOOOOOOOOOOOOOOOOOOOOOOOOOOOOOOO",
"1OOOOOOOOOOOOOOOOOOOOOOOOOOOOOOOOOOOOOOOOOOOOOOOOO",
"1OOOOOOOOOOOOOOOOOOOOOOOOOOOOOOOOOOOOOOOOOOOOOOOOO",
"1OOOOOOOOOOOOOOOOOOOOOOOOOOOOOOOOOOOOOOOOOOOOOOOOO",
"1OOOOOOOOOOOOOOOOOOOOOOOOOOOOOOOOOOOOOOOOOOOOOOOOO",
"1OOOOOOOOOOOOOOOOOOOOOOOOOOOOOOOOOOOOOOOOOOOOOOOOO",
"1OOOOOOOOOOOOOOOOOOOOOOOOOOOOOOOOOOOOOOOOOOOOOOOOO",
"1OOOOOOOOOOOOOOOOOOOOOOOOOOOOOOOOOOOOOOOOOOOOOOOOO"
};
