/* XPM */
static char *result[] = {
/* columns rows colors chars-per-pixel */
"50 100 20 1 ",
"  c black",
". c #00117A",
"X c #0D2FF9",
"o c #0086FF",
"O c #9BADB7",
"+ c #9BADB8",
"@ c #9CAEB8",
"# c #9CAEB9",
"$ c #9EB0BD",
"% c #9FB0BD",
"& c #A4B5C5",
"* c #A5B6C6",
"= c #ADBDD2",
"- c #B6C6DF",
"; c #BFCFEB",
": c #C5D5F3",
"> c #C8D8F8",
", c #CADAFB",
"< c #CBDBFC",
"1 c white",
/* pixels */
"11111111111111111111111111111111111111111111111111",
"1<<<<<<<<<<<<<<<<<<<<<<<<<<<<<<<<<<<<<<<<<<<<<<<<<",
"1<<<<<<<<<<<<<<<<<<<<<<<<<<<<<<<<<<<<<<<<<<<<<<<<<",
"1<<<<<<<<<<<<<<<<<<<<<<<<<<<<<<<<<<<<<<<<<<<<<<<<<",
"1<<<<<<<<<<<<<<<<<<<<<<<<<<<<<<<<<<<<<<<<<<<<<<<<<",
"1<<<<<<<<<<<<<<<<<<<<<<<<<<<<<<<<<<<<<<<<<<<<<<<<<",
"1<<<<<<<<<<<<<<<<<<<<<<<<<<<<<<<<<<<<<<<<<<<<<<<<<",
"1<<<<<<<<<<<<<<<<<<<<<<<<<<<<<<<<<<<<<<<<<<<<<<<<<",
"1<<<<<<<<<<<<<<<<<<<<<<<<<<<<<<<<<<<<<<<<<<<<<<<<<",
"1<<<<<<<<<<<<<<<<<<<<<<<<<<<<<<<<<<<<<<<<<<<<<<<<<",
"1<<<<<<<<<<<<<<<<<<<<<<<<<<<<<<<<<<<<<<<<<<<<<<<<<",
"1<<<<<<<<<<<<<<<<<<<<<<<<<<<<<<<<<<<<<<<<<<<<<<<<<",
"1<<<<<<<<<<<<<<<<<<<<<<<<<<<<<<<<<<<<<<<<<<<<<<<<<",
"1<<<<<<<<<<<<<<<<<<<<<<<<<<<<<<<<<<<<<<<<<<<<<<<<<",
"1<<<<<<<<<<<<<<<<<<<<<<<<<<<<<<<<<<<<<<<<<<<<<<<<<",
"1<<<<<<<<<<<<<<<<<<<<<<<<<<<<<<<<<<<<<<<<<<<<<<<<<",
"1<<<<<<<<<<<<<<<<<<<<<<<<<<<<<<<<<<<<<<<<<<<<<<<<<",
"1<<<<<<<<<<<<<<<<<<<<<<<<<<<<<<<<<<<<<<<<<<<<<<<<<",
"1<<<<<<<<<<<<<<<<<<<<<<<<<<<<<<<<<<<<<<<<<<<<<<<<<",
"1<<<<<<<<<<<<<<<<<<<<<<<<<<<<<<<<<<<<<<<<<<<<<<<<<",
"1<<<<<<<<<<<<<<<<<<<<<<<<<<<<<<<<<<<<<<<<<<<<<<<<<",
"1<<<<<<<<<<<<<<<<<<<<<<<<<<<<<<<<<<<<<<<<<<<<<<<<<",
"1<<<<<<<<<<<<<<<<<<<<<<<<<<<<<<<<<<<<<<<<<<<<<<<<<",
"1<<<<<<<<<<<<<<<<<<<<<<<<<<<<<<<<<<<<<<<<<<<<<<<<<",
"1<<<<<<<<<<<<<<<<<<<<<<<<<<<<<<<<<<<<<<<<<<<<<<<<<",
"1<<<<<<<<<<<<<<<<<<<<<<<<<<<<<<<<<<<<<<<<<<<<<<<<<",
"1<<<<<<<<<<<<<<<<<<<<<<<<<<<<<<<<<<<<<<<<<<<<<<<<<",
"1<<<<<<<<<<<<<<<<<<<<<<<<<<<<<<<<<<<<<<<<<<<<<<<<<",
"1<<<<<<<<<<<<<<<<<<<<<<<      <<<<<<<<<<<<<<<<<<<<",
"1<<<<<<<<<<<<<<<<<<<<<  XXXXXX <<<<<<<<<<<<<<<<<<<",
"1<<<<<<<<<<<<<<<<<<<<  XXooXXXX  <<<<<<<<<<<<<<<<<",
"1<<<<<<<<<<<<<<<<<<< XXXoooooXXXX <<<<<<<<<<<<<<<<",
"1,,,,,,,,,,,,,,,,,, XXXXo111ooXXXX ,,,,,,,,,,,,,,,",
"1,,,,,,,,,,,,,,,,, XXXXXoo11ooXXXXX ,,,,,,,,,,,,,,",
"1>>>>>>>>>>>>>>>>> XXXXXXooooXXXXXX >>>>>>>>>>>>>>",
"1:::::::::::::::: XXXXXXXXooXXXXXXXX :::::::::::::",
"1;;;;;;;;;;;;;;;; XXXXXXXXXXXXXXXXXX ;;;;;;;;;;;;;",
"1--------------- XXXXXXXXXXXXXXXXXXXX ------------",
"1============== XXXXXXXXXXXXXXXXXXXXX ============",
"1&&************ XXXXXXXXXXXXXXXXXXXXXX ***********",
"1$$%%%%%%%%%%%% XXXXXXXXXXXXXXXXXXXXXX %%%%%%%%%%%",
"1++@@@@@@@@@###XXXXXXXXXXXXXXXXXXXXXXX ###########",
"1OOOOOOOOOOOOOOXXXXXXXXXXXXXXXXXXXXXXX OOOOOOOOOOO",
"1OOOOOOOOOOOOOOXXXXXXXXXXXXXXXXXXXXXXX OOOOOOOOOOO",
"1OOOOOOOOOOOOO XXXXXXXXXXXXXXXXXXXXXXXX OOOOOOOOOO",
"1OOOOOOOOOOOOO XXXXXXXXXXXXXXXXXXXXXXXX OOOOOOOOOO",
"1OOOOOOOOOOOOO XXXXXXXXXXXXXXXXXXXXXXXX OOOOOOOOOO",
"1OOOOOOOOOOOOO XXXXXXXXXXXXXXXXXXXXXXXX OOOOOOOOOO",
"1OOOOOOOOOOOOO XXXXXXXXXXXXXXXXXXXXXXXX OOOOOOOOOO",
"1OOOOOOOOOOOOO XXXXXXXXXXXXXXXXXXXXXXXX OOOOOOOOOO",
"11111111111111 XXXXXXXXXXXXXXXXXXXXXXXX 1111111111",
"1<<<<<<<<<<<<< XXXXXXXXXXXXXXXXXXXXXXXX <<<<<<<<<<",
"1<<<<<<<<<<<<< XXXXXXXXXXXXXXXXXXXXXXXX <<<<<<<<<<",
"1<<<<<<<<<<<<< XXXXXXXXXXXXXXXXXXXXXXXX <<<<<<<<<<",
"1<<<<<<<<<<<<< .XXXXXXXXXXXXXXXXXXXXXX. <<<<<<<<<<",
"1<<<<<<<<<<<<< .XXXXXXXXXXXXXXXXXXXXX. <<<<<<<<<<<",
"1<<<<<<<<<<<<<<..XXXXXXXXXXXXXXXXXXX.X <<<<<<<<<<<",
"1<<<<<<<<<<<<<<..XXXXXXXXXXXXXXXXXXX.X <<<<<<<<<<<",
"1<<<<<<<<<<<<<<..XXXXXXXXXXXXXXXXXX.X. <<<<<<<<<<<",
"1<<<<<<<<<<<<<< ..XXXXXXXXXXXXXXXX.X.. <<<<<<<<<<<",
"1<<<<<<<<<<<<<< ...XXXXXXXXXXXXXX.... <<<<<<<<<<<<",
"1<<<<<<<<<<<<<<< ..XXXXXXXXXXXXXX.X.. <<<<<<<<<<<<",
"1<<<<<<<<<<<<<<< ...XX.XXXXXXXX..X...<<<<<<<<<<<<<",
"1<<<<<<<<<<<<<<<< ...XXX.XXXX..XX... <<<<<<<<<<<<<",
"1<<<<<<<<<<<<<<<< ....XXX....XX.... <<<<<<<<<<<<<<",
"1<<<<<<<<<<<<<<<<< .....XXXXXX..... <<<<<<<<<<<<<<",
"1<<<<<<<<<<<<<<<<<< .....XXXX..... <<<<<<<<<<<<<<<",
"1<<<<<<<<<<<<<<<<<<< ............ <<<<<<<<<<<<<<<<",
"1<<<<<<<<<<<<<<<<<<<  .......... <<<<<<<<<<<<<<<<<",
"1<<<<<<<<<<<<<<<<<<<<<  ......  <<<<<<<<<<<<<<<<<<",
"1<<<<<<<<<<<<<<<<<<<<<<<      <<<<<<<<<<<<<<<<<<<<",
"1<<<<<<<<<<<<<<<<<<<<<<<<<<<<<<<<<<<<<<<<<<<<<<<<<",
"1<<<<<<<<<<<<<<<<<<<<<<<<<<<<<<<<<<<<<<<<<<<<<<<<<",
"1<<<<<<<<<<<<<<<<<<<<<<<<<<<<<<<<<<<<<<<<<<<<<<<<<",
"1<<<<<<<<<<<<<<<<<<<<<<<<<<<<<<<<<<<<<<<<<<<<<<<<<",
"1<<<<<<<<<<<<<<<<<<<<<<<<<<<<<<<<<<<<<<<<<<<<<<<<<",
"1<<<<<<<<<<<<<<<<<<<<<<<<<<<<<<<<<<<<<<<<<<<<<<<<<",
"1<<<<<<<<<<<<<<<<<<<<<<<<<<<<<<<<<<<<<<<<<<<<<<<<<",
"1<<<<<<<<<<<<<<<<<<<<<<<<<<<<<<<<<<<<<<<<<<<<<<<<<",
"1<<<<<<<<<<<<<<<<<<<<<<<<<<<<<<<<<<<<<<<<<<<<<<<<<",
"1<<<<<<<<<<<<<<<<<<<<<<<<<<<<<<<<<<<<<<<<<<<<<<<<<",
"1<<<<<<<<<<<<<<<<<<<<<<<<<<<<<<<<<<<<<<<<<<<<<<<<<",
"1,,,,,,,,,,,,,,,,,,,,,,,,,,,,,,,,,,,,,,,,,,,,,,,,,",
"1,,,,,,,,,,,,,,,,,,,,,,,,,,,,,,,,,,,,,,,,,,,,,,,,,",
"1>>>>>>>>>>>>>>>>>>>>>>>>>>>>>>>>>>>>>>>>>>>>>>>>>",
"1:::::::::::::::::::::::::::::::::::::::::::::::::",
"1;;;;;;;;;;;;;;;;;;;;;;;;;;;;;;;;;;;;;;;;;;;;;;;;;",
"1-------------------------------------------------",
"1=================================================",
"1&&***********************************************",
"1$$%%%%%%%%%%%%%%%%%%%%%%%%%%%%%%%%%%%%%%%%%%%%%%%",
"1++@@@@@@@@@######################################",
"1OOOOOOOOOOOOOOOOOOOOOOOOOOOOOOOOOOOOOOOOOOOOOOOOO",
"1OOOOOOOOOOOOOOOOOOOOOOOOOOOOOOOOOOOOOOOOOOOOOOOOO",
"1OOOOO                                         OOO",
"1OO                                               ",
"1OOOOO                                       OOOOO",
"1OOOOOOOOOOOOOOOOOOOOOOOOOOOOOOOOOOOOOOOOOOOOOOOOO",
"1OOOOOOOOOOOOOOOOOOOOOOOOOOOOOOOOOOOOOOOOOOOOOOOOO",
"1OOOOOOOOOOOOOOOOOOOOOOOOOOOOOOOOOOOOOOOOOOOOOOOOO"
};
