/* XPM */
static char *dfa4209f58714c5af4a9af7b5669f2e4ADeNAG0fj8scOgE7[] = {
/* columns rows colors chars-per-pixel */
"50 50 21 1 ",
"  c #222034",
". c #3C3C3C",
"X c #676767",
"o c #6D6D6D",
"O c #FF1B00",
"+ c #FF8A09",
"@ c #F2FF09",
"# c #847E87",
"$ c #929292",
"% c #9BADB7",
"& c #9CAEB9",
"* c #9FB0BD",
"= c #A5B6C6",
"- c #ADBDD2",
"; c #B6C6DF",
": c #BFCFEB",
"> c gray79",
", c #C5D5F3",
"< c #CADAFB",
"1 c #CBDBFC",
"2 c white",
/* pixels */
"22222222222222222222222222222222222222222222222222",
"21111111111111111111111111111111111111111111111111",
"21111111111111111111111111111111111111111111111111",
"21111111111111111111111111111111111111111111111111",
"21111111111111111111111111111111111111111111111111",
"21111111111111111111111111111111111111111111111111",
"21111111111111111111111111111111111111111111111111",
"21111111111111111111111111111111111111111111111111",
"21111111111111111111111111111111111111111111111111",
"21111111111111111121111111111111111111111111111111",
"21111111111111111121111111111111111111111111111111",
"21111111111111111222111111111111111111111111111111",
"211111111111111112@2111111111111111111111111111111",
"211111111111111112@2111111111111111111111111111111",
"211111111111111112@2211111111111111111111111111111",
"211111111111111112@@221111111111111111111111111111",
"2111111111111111122@@21111111111111111111111111111",
"2111111111111111112@@22111111111111111111111111111",
"2111111111111111112@+@2211111111111111111111111111",
"2111111111111111112@++@211111111111111111111111111",
"2111111111111111112@+@@221111111111111111111111111",
"21111111111111111122@++@21111111111111111111111111",
"21111111111111111112@++@21111111211111111111111111",
"21111111111111211112@++@22111111221111111111111111",
"21111111111111211112@+++@2111111222111111111111111",
"21111111111111211112@+++@21111112@2111111111111111",
"21111111111112211112@+O+@21111122@2211111111111111",
"2111111111111222112@++++@2211112@+@211111111111111",
"21111111111122@2122@+++++@211122@+@221111111111111",
"2111111111112@+@22@+++O++@21122@+@+@21111111111111",
"2111111111112@++@@++++O++@2122@++++@21111111111111",
"2111111111122@+++++++OO+@+@22@++O++@21111111111111",
"2<<<<<<<<<<2@++O++@++OO++++@@++OO++@22<<<<<<<<<<<<",
"2<<<<<<<<<22@+++++++OOOO++++++OOOO++@2<<<<<<<<<<<<",
"2<<<<<<<<<2@@@+O+++OOOOOO++++OOOOO++@2<<<<<<<<<<<<",
"2,,,,,,,,22@++OOO+OOOOOOOOO+OOOO+O++@2,,,,,,,,,,,,",
"2::::::::2@@++OOOOOOOOOOOO+OOOOOOO++@2::::::::::::",
"2;;;;;;;;2@++OOOOOOOOOOOOOOOOOOOOO++@2;;;;;;;;;;;;",
"2--------2@++O+OOOOOOOOOOOOOOOOOO++@@2------------",
"2========2@++OOOOOOOOOOOOOOOOOOOOO++@2============",
"2********2@@++OOOOOOOOOOOOOOOOOOO+++@2************",
"2&&&&&   2@++++OOOOOOOOOOOOOOOOOO++@@2     &&&&&&&",
"2%%%    >22@+++OOOOOOOOOOOOOOOOO+++@@2XXXX.  %%%%%",
"2%%   ##>$2@++O+OOOOOOOOOOOOOOOO++@@22XXXX.oo %%%%",
"2%%  ###>$2@@++OOOOOOOOOOOOOOOO+++@22XXXXX.o  %%%%",
"2%%%   #>  2@+@+OO+OOOOOOOOOO+O++@@2    XX.  %%%%%",
"2%%%%%      2@+++OOOOOOOOOOOOO++@@@2       %%%%%%%",
"2%%%%%%%%%%%                         %%%%%%%%%%%%%",
"2%%%%%%%%%%%%%%%%%%%%%%%%%%%%%%%%%%%%%%%%%%%%%%%%%",
"2%%%%%%%%%%%%%%%%%%%%%%%%%%%%%%%%%%%%%%%%%%%%%%%%%"
};
