/* XPM */
static char *result[] = {
/* columns rows colors chars-per-pixel */
"50 50 23 1 ",
"  c #222034",
". c #3C3C3C",
"X c #676767",
"o c #6D6D6D",
"O c #847E87",
"+ c #929292",
"@ c #9D9D9D",
"# c #9BADB7",
"$ c #9CAEB9",
"% c #9FB0BD",
"& c #A5B6C5",
"* c #A5B6C6",
"= c #ADBDD1",
"- c #ADBDD2",
"; c #B6C6DF",
": c #BFCFEB",
"> c gray79",
", c #D6D5D9",
"< c #C5D5F3",
"1 c #C8D8F8",
"2 c #CADAFB",
"3 c #CBDBFC",
"4 c white",
/* pixels */
"44444444444444444444444444444444444444444444444444",
"43333333333333333333333333333333333333333333333333",
"43333333333333333333333333333333333333333333333333",
"43333333333333333333333333333333333333333333333333",
"43333333333333333333333333333333333333333333333333",
"43333333333333333333333333333333333333333333333333",
"43333333333333333333333333333333333333333333333333",
"43333333333333333333333333333333333333333333333333",
"43333333333333333333333333333333333333333333333333",
"43333333333333333333333333333333333333333333333333",
"43333333333333333333333333333333333333333333333333",
"43333333333333333333333333333333333333333333333333",
"43333333333333333333333333333333333333333333333333",
"43333333333333333333333333333333333333333333333333",
"43333333333333333333333333333333333333333333333333",
"43333333333333333333333333333333333333333333333333",
"43333333333333333333333333333333333333333333333333",
"43333333333333333333333333333333333333333333333333",
"43333333333333333333333333333333333333333333333333",
"43333333333333333333333333333333333333333333333333",
"43333333333333333333333333333333333333333333333333",
"43333333333333333333333333333333333333333333333333",
"43333333333333333333333333333333333333333333333333",
"43333333333333333333333333333333333333333333333333",
"43333333333333333333333333333333333333333333333333",
"43333333333333333333333333333333333333333333333333",
"43333333333333333333333333333333333333333333333333",
"43333333333333333333333333333333333333333333333333",
"43333333333333333333333333333333333333333333333333",
"43333333333333333333333333333333333333333333333333",
"43333333333333333333333333333333333333333333333333",
"43333333333333333333333333333333333333333333333333",
"42222222222222222222222222222222222222222222222222",
"42222222222222222222222222222222222222222222222222",
"41111111111111111111111111111111111111111111111111",
"4<<<<<<<<<<<<<<<<<<<<<<<<<<<<<<<<<<<<<<<<<<<<<<<<<",
"4:::::::::::::::::::::::::::::::::::::::::::::::::",
"4;;;;;;;;;;;;;;;;;;;;;;;;;;;;;;;;;;;;;;;;;;;;;;;;;",
"4-----------------===========---------------------",
"4*****************&&&&&&&&&&&*********************",
"4%%%%%%%%%%%                         %%%%%%%%%%%%%",
"4$$$$$       4@@@@@@@@O,@@@@@@@@@@@O4      $$$$$$$",
"4###    >++++4@@@@@@@@O,@@@@@@@@@@@O4XXXXX.  #####",
"4##   OO>++++4@@@@@@@@O,@@@@@@@@@@@O4XXXXX.oo ####",
"4##  OOO>++++4                      4XXXXX.o  ####",
"4###   O>                               XX.  #####",
"4#####                                     #######",
"4###########                         #############",
"4#################################################",
"4#################################################"
};
