/* XPM */
static char *_f68fd7e7e65485f86ba955494b3bc7byHN4xhMz6S2UrivI[] = {
/* columns rows colors chars-per-pixel */
"50 50 14 1 ",
"  c black",
". c #9BADB7",
"X c #9CAEB9",
"o c #9FB0BD",
"O c #EB8C8C",
"+ c #A5B6C6",
"@ c #ADBDD2",
"# c #B6C6DF",
"$ c #BFCFEB",
"% c #FFC5C5",
"& c #C5D5F3",
"* c #CADAFB",
"= c #CBDBFC",
"- c white",
/* pixels */
"--------------------------------------------------",
"-=================================================",
"-=================================================",
"-=================================================",
"-=================================================",
"-=================================================",
"-=================================================",
"-=================================================",
"-=================================================",
"-=================================================",
"-=================================================",
"-=================================================",
"-=================================================",
"-=================================================",
"-=================================================",
"-=================================================",
"-=================================================",
"-=================================================",
"-=================================================",
"-=================================================",
"-=================================================",
"-=================================================",
"-=================================================",
"-=================================================",
"-=================================================",
"-======                                    =======",
"-===== OOOOOOOOOOOOOOOOOOOOOOOOOOOOOOOOOOOO ======",
"-==== OOOOOOOOOOOOOOOOOOOOOOOOO%O%%%%%%%%%OO =====",
"-=== OOOOOOOOOOOOOOOOOOOOOOOOOOOOOOOO%%%-%%OO ====",
"-=== OOOOOOOOOOOOOOOOOOOOOOOOOOOOOOOOOO%%-%%O ====",
"-=== OOOOOOOOOOOOOOOOOOOOOOOOOOOOOOOOOOO%%-%O ====",
"-=== OOOOOOOOOOOOOOOOOOOOOOOOOOOOOOOOOOOO%%%O ====",
"-*** OOOOOOOOOOOOOOOOOOOOOOOOOOOOOOOOOOOOO%%O ****",
"-*** OOOOOOOOOOOOOOOOOOOOOOOOOOOOOOOOOOOOO%%O ****",
"-*** OOOOOOOOOOOOOOOOOOOOOOOOOOOOOOOOOOOOOO%O ****",
"-&&& OOOOOOOOOOOOOOOOOOOOOOOOOOOOOOOOOOOOOOOO &&&&",
"-$$$ OOOOOOOOOOOOOOOOOOOOOOOOOOOOOOOOOOOOOOOO $$$$",
"-### OOOOOOOOOOOOOOOOOOOOOOOOOOOOOOOOOOOOOOOO ####",
"-@@@ OOOOOOOOOOOOOOOOOOOOOOOOOOOOOOOOOOOOOOOO @@@@",
"-++++ OOOOOOOOOOOOOOOOOOOOOOOOOOOOOOOOOOOOOO +++++",
"-ooooo OOOOOOOOOOOOOOOOOOOOOOOOOOOOOOOOOOOO oooooo",
"-XXXXXX                                    XXXXXXX",
"-.................................................",
"-.................................................",
"-.................................................",
"-......                                    .......",
"-...                                          ....",
"-......                                    .......",
"-.................................................",
"-................................................."
};
